<svg width="165" height="26" viewBox="0 0 165 26" fill="none" xmlns="http://www.w3.org/2000/svg">
<path fill-rule="evenodd" clip-rule="evenodd" d="M146.586 10.8271C145.598 9.39504 144.778 8.09984 144.454 7.31477L144.726 6.92662C144.726 6.92615 144.725 6.92528 144.725 6.92528L145.051 6.44519C145.051 6.44519 145.904 7.41757 147.125 8.71323C147.321 8.02573 147.543 7.32302 147.793 6.62378L148.257 6.83206C148.257 6.83206 147.986 7.84017 147.69 9.30658C148.308 9.95052 148.99 10.6441 149.689 11.322C149.821 10.6602 149.972 9.98363 150.148 9.30618L150.604 9.45039C150.604 9.45039 150.428 10.4332 150.255 11.8626C151.005 12.5697 151.758 13.2381 152.455 13.787C155.434 16.1352 157.473 18.5915 157.686 22.3704H163.014C165.777 22.3704 165.362 19.0842 163.566 18.5915C162.355 18.2586 160.798 17.494 160.798 17.494C160.184 17.2505 159.682 16.7163 159.41 16.0176C159.41 16.0176 159.343 15.849 159.23 15.5631L156.974 16.3748C156.728 16.4632 156.467 16.2973 156.393 16.0045C156.318 15.7113 156.458 15.4015 156.704 15.3131L158.829 14.5485C158.647 14.0858 158.435 13.5473 158.211 12.9792L156.103 13.7377C155.857 13.8261 155.596 13.6606 155.522 13.3674C155.447 13.0742 155.587 12.7649 155.833 12.676L157.812 11.9641C157.602 11.4265 157.392 10.8911 157.198 10.3936L155.232 11.1006C154.986 11.1895 154.726 11.0236 154.651 10.7303C154.577 10.4376 154.716 10.1278 154.962 10.0394L156.804 9.37674C156.54 8.69314 156.348 8.18696 156.297 8.03009C156.282 7.98276 156.265 7.92965 156.247 7.87212C156.005 7.0961 155.512 5.51656 154.478 6.50094C152.653 8.23883 149.322 7.72865 148.462 5.82872C147.828 4.42795 148.174 2.92132 148.449 1.72555L148.462 1.66597C148.683 0.702706 147.541 -0.799025 146.712 0.515396C146.126 1.44468 141.186 8.40308 141.186 8.40308L146.091 13.313C146.212 12.6028 146.374 11.7537 146.586 10.8271ZM146.89 9.57844C146.415 9.07523 145.993 8.60954 145.645 8.19473C145.983 8.81643 146.296 9.38103 146.762 10.082C146.803 9.91607 146.846 9.74839 146.89 9.57844ZM140.715 9.54488L152.898 21.8445C154.082 23.0313 155.59 23.6852 157.139 23.6852H164.948V25H157.139C155.329 24.9996 153.571 24.2367 152.186 22.8504L152.184 22.8487L140 10.5474L140.715 9.54488ZM152.666 19.8949L149.931 17.1572C149.922 16.5961 149.931 16.0254 149.954 15.4608C150.338 15.9713 150.694 16.441 151 16.8466L151.013 16.8637L151.015 16.8663C151.405 17.3803 151.715 17.7899 151.904 18.0473C152.343 18.6437 152.565 19.2902 152.666 19.8949ZM147.513 10.2297C148.127 10.8645 148.806 11.5446 149.517 12.2478C149.447 12.6503 149.384 13.0437 149.328 13.4253C148.484 12.4138 147.865 11.6261 147.384 10.9691C147.425 10.7159 147.469 10.4698 147.513 10.2297ZM156.138 22.2588C156.12 21.2019 155.923 18.5853 154.48 17.1358C153.533 16.185 152.506 15.1793 151.483 14.178C151.033 13.7378 150.584 13.2985 150.143 12.865C150.099 13.3051 150.058 13.7703 150.023 14.2496C150.118 14.3611 150.213 14.4727 150.313 14.5885C152.268 16.8684 153.79 18.6594 153.966 21.1649C154.616 21.7147 155.358 22.0863 156.138 22.2588ZM149.001 16.2254L146.992 14.2148C147.047 13.4001 147.142 12.5754 147.257 11.786C147.89 12.6782 148.558 13.5896 149.19 14.4396C149.108 15.0983 149.047 15.7008 149.001 16.2254ZM13.0455 13H15.1591C15 12.1023 14.7102 11.304 14.2898 10.6051C13.8693 9.90057 13.3466 9.30398 12.7216 8.81534C12.0966 8.32102 11.3949 7.94602 10.6165 7.69034C9.84375 7.43466 9.01705 7.30682 8.13636 7.30682C6.64773 7.30682 5.32386 7.67045 4.16477 8.39773C3.00568 9.125 2.09375 10.1591 1.42898 11.5C0.764205 12.8409 0.431818 14.4318 0.431818 16.2727C0.431818 18.1136 0.764205 19.7045 1.42898 21.0455C2.09375 22.3864 3.00568 23.4205 4.16477 24.1477C5.32386 24.875 6.64773 25.2386 8.13636 25.2386C9.01705 25.2386 9.84375 25.1108 10.6165 24.8551C11.3949 24.5994 12.0966 24.2273 12.7216 23.7386C13.3466 23.2443 13.8693 22.6449 14.2898 21.9403C14.7102 21.2358 15 20.4375 15.1591 19.5455H13.0455C12.9205 20.1477 12.7017 20.6818 12.3892 21.1477C12.0824 21.608 11.7074 21.9972 11.2642 22.3153C10.8267 22.6278 10.3409 22.8636 9.80682 23.0227C9.27273 23.1818 8.71591 23.2614 8.13636 23.2614C7.07955 23.2614 6.12216 22.9943 5.2642 22.4602C4.41193 21.9261 3.73295 21.1392 3.22727 20.0994C2.72727 19.0597 2.47727 17.7841 2.47727 16.2727C2.47727 14.7614 2.72727 13.4858 3.22727 12.446C3.73295 11.4063 4.41193 10.6193 5.2642 10.0852C6.12216 9.55114 7.07955 9.28409 8.13636 9.28409C8.71591 9.28409 9.27273 9.36364 9.80682 9.52273C10.3409 9.68182 10.8267 9.92045 11.2642 10.2386C11.7074 10.5511 12.0824 10.9375 12.3892 11.3977C12.7017 11.858 12.9205 12.392 13.0455 13ZM20.2791 24.608C21.1087 25.0284 22.0973 25.2386 23.245 25.2386C24.0803 25.2386 24.9268 25.0852 25.7848 24.7784C26.5728 24.4914 27.2362 24.0701 27.775 23.5147L29.0064 25H31.4268L29.0042 22.0413C29.0356 22.003 29.0676 21.9636 29.1001 21.9233C29.4354 21.5085 29.7365 20.9347 30.0036 20.2017C30.2706 19.4688 30.4041 18.5227 30.4041 17.3636H28.4609C28.4609 18.3011 28.3104 19.1449 28.0092 19.8949C27.9272 20.1032 27.8368 20.3032 27.738 20.4949L23.9441 15.8615L25.2223 14.9091C25.9382 14.3807 26.5036 13.8097 26.9183 13.196C27.3331 12.5824 27.5405 11.858 27.5405 11.0227C27.5405 10.375 27.37 9.77557 27.0291 9.22443C26.6882 8.66761 26.2024 8.22159 25.5717 7.88636C24.9411 7.54546 24.1882 7.375 23.3132 7.375C22.4609 7.375 21.7166 7.54261 21.0803 7.87784C20.4496 8.20739 19.9581 8.67045 19.6058 9.26705C19.2592 9.85795 19.0859 10.5455 19.0859 11.3295C19.0859 12.0114 19.2337 12.6449 19.5291 13.2301C19.8246 13.8153 20.2223 14.4091 20.7223 15.0114C20.8586 15.1755 20.999 15.3447 21.1437 15.5189C20.5061 15.9634 19.9367 16.4078 19.4354 16.8523C18.8899 17.3352 18.4609 17.8608 18.1484 18.429C17.8416 18.9915 17.6882 19.6364 17.6882 20.3636C17.6882 21.3068 17.9126 22.1449 18.3615 22.8778C18.8104 23.6108 19.4496 24.1875 20.2791 24.608ZM22.39 17.0194C22.3909 17.0205 22.3918 17.0216 22.3928 17.0227L26.565 22.0552C26.1206 22.4762 25.6333 22.8073 25.103 23.0483C24.478 23.3267 23.8359 23.4659 23.1768 23.4659C22.4837 23.4659 21.8786 23.321 21.3615 23.0312C20.8445 22.7415 20.4439 22.3608 20.1598 21.8892C19.8757 21.4176 19.7337 20.9091 19.7337 20.3636C19.7337 20.125 19.8729 19.733 20.1513 19.1875C20.4297 18.642 20.9609 18.0795 21.745 17.5L22.39 17.0194ZM23.8587 13.5114L22.7137 14.3623C22.5825 14.2022 22.4528 14.0435 22.3246 13.8864C21.978 13.4489 21.6911 13.0227 21.4638 12.608C21.2422 12.1875 21.1314 11.7727 21.1314 11.3636C21.1314 11 21.2251 10.6477 21.4126 10.3068C21.6058 9.96023 21.87 9.67614 22.2053 9.45455C22.5462 9.22727 22.9382 9.11364 23.3814 9.11364C24.0121 9.11364 24.5206 9.32102 24.907 9.7358C25.299 10.1506 25.495 10.5795 25.495 11.0227C25.495 11.6193 25.3445 12.1023 25.0433 12.4716C24.7479 12.8409 24.353 13.1875 23.8587 13.5114ZM36.4489 7.54545H33.9261V25H35.9034V11.7386H36.0739L41.5284 25H43.4375L48.892 11.7386H49.0625V25H51.0398V7.54545H48.517L42.5852 22.0341H42.3807L36.4489 7.54545ZM63.5788 9.89773C64.3061 10.375 64.7209 11.0455 64.8232 11.9091H66.8686C66.8402 11.0284 66.5675 10.2415 66.0504 9.5483C65.5391 8.85511 64.8459 8.30966 63.9709 7.91193C63.0959 7.50852 62.0959 7.30682 60.9709 7.30682C59.8572 7.30682 58.8487 7.51136 57.9453 7.92045C57.0476 8.32386 56.3317 8.89205 55.7976 9.625C55.2692 10.3523 55.005 11.2045 55.005 12.1818C55.005 13.358 55.4027 14.3097 56.1982 15.0369C56.9936 15.7642 58.0732 16.3239 59.4368 16.7159L61.5845 17.3295C62.1982 17.5 62.7692 17.6989 63.2976 17.9261C63.826 18.1534 64.2521 18.4489 64.576 18.8125C64.8999 19.1761 65.0618 19.6477 65.0618 20.2273C65.0618 20.8636 64.8743 21.4205 64.4993 21.8977C64.1243 22.3693 63.6158 22.7386 62.9737 23.0057C62.3317 23.267 61.6072 23.3977 60.8004 23.3977C60.1072 23.3977 59.4595 23.2955 58.8572 23.0909C58.2607 22.8807 57.7663 22.5625 57.3743 22.1364C56.9879 21.7045 56.7663 21.1591 56.7095 20.5H54.5277C54.5959 21.4545 54.8885 22.2926 55.4055 23.0142C55.9283 23.7358 56.6442 24.2983 57.5533 24.7017C58.468 25.1051 59.5504 25.3068 60.8004 25.3068C62.1413 25.3068 63.2805 25.0824 64.218 24.6335C65.1612 24.1847 65.8771 23.5795 66.3658 22.8182C66.8601 22.0568 67.1072 21.2045 67.1072 20.2614C67.1072 19.4432 66.9396 18.7528 66.6044 18.1903C66.2692 17.6278 65.843 17.1676 65.326 16.8097C64.8146 16.446 64.2777 16.1591 63.7152 15.9489C63.1584 15.7386 62.6527 15.5739 62.1982 15.4545L60.4254 14.9773C60.1016 14.892 59.7464 14.7812 59.3601 14.6449C58.9737 14.5028 58.6044 14.3239 58.2521 14.108C57.8999 13.8864 57.6101 13.6108 57.3828 13.2813C57.1612 12.946 57.0504 12.5455 57.0504 12.0795C57.0504 11.5227 57.2095 11.0256 57.5277 10.5881C57.8516 10.1506 58.3004 9.80682 58.8743 9.55682C59.4538 9.30682 60.13 9.18182 60.9027 9.18182C61.9595 9.18182 62.8516 9.42045 63.5788 9.89773ZM70.5824 7.54545V25H72.696V17.1932H82.0028V25H84.1165V7.54545H82.0028V15.3182H72.696V7.54545H70.5824ZM102.078 21.0455C102.743 19.7045 103.075 18.1136 103.075 16.2727C103.075 14.4318 102.743 12.8409 102.078 11.5C101.413 10.1591 100.501 9.125 99.3423 8.39773C98.1832 7.67045 96.8594 7.30682 95.3707 7.30682C93.8821 7.30682 92.5582 7.67045 91.3991 8.39773C90.2401 9.125 89.3281 10.1591 88.6634 11.5C87.9986 12.8409 87.6662 14.4318 87.6662 16.2727C87.6662 18.1136 87.9986 19.7045 88.6634 21.0455C89.3281 22.3864 90.2401 23.4205 91.3991 24.1477C92.5582 24.875 93.8821 25.2386 95.3707 25.2386C96.8594 25.2386 98.1832 24.875 99.3423 24.1477C100.501 23.4205 101.413 22.3864 102.078 21.0455ZM100.271 12.446C100.777 13.4858 101.03 14.7614 101.03 16.2727C101.03 17.7841 100.777 19.0597 100.271 20.0994C99.7713 21.1392 99.0923 21.9261 98.2344 22.4602C97.3821 22.9943 96.4276 23.2614 95.3707 23.2614C94.3139 23.2614 93.3565 22.9943 92.4986 22.4602C91.6463 21.9261 90.9673 21.1392 90.4616 20.0994C89.9616 19.0597 89.7116 17.7841 89.7116 16.2727C89.7116 14.7614 89.9616 13.4858 90.4616 12.446C90.9673 11.4063 91.6463 10.6193 92.4986 10.0852C93.3565 9.55114 94.3139 9.28409 95.3707 9.28409C96.4276 9.28409 97.3821 9.55114 98.2344 10.0852C99.0923 10.6193 99.7713 11.4063 100.271 12.446ZM106.629 7.54545V25H117.3V23.125H108.743V17.1932H116.618V15.3182H108.743V9.42045H117.163V7.54545H106.629ZM129.274 9.89773C130.001 10.375 130.416 11.0455 130.518 11.9091H132.564C132.536 11.0284 132.263 10.2415 131.746 9.5483C131.234 8.85511 130.541 8.30966 129.666 7.91193C128.791 7.50852 127.791 7.30682 126.666 7.30682C125.553 7.30682 124.544 7.51136 123.641 7.92045C122.743 8.32386 122.027 8.89205 121.493 9.625C120.964 10.3523 120.7 11.2045 120.7 12.1818C120.7 13.358 121.098 14.3097 121.893 15.0369C122.689 15.7642 123.768 16.3239 125.132 16.7159L127.28 17.3295C127.893 17.5 128.464 17.6989 128.993 17.9261C129.521 18.1534 129.947 18.4489 130.271 18.8125C130.595 19.1761 130.757 19.6477 130.757 20.2273C130.757 20.8636 130.57 21.4205 130.195 21.8977C129.82 22.3693 129.311 22.7386 128.669 23.0057C128.027 23.267 127.303 23.3977 126.496 23.3977C125.803 23.3977 125.155 23.2955 124.553 23.0909C123.956 22.8807 123.462 22.5625 123.07 22.1364C122.683 21.7045 122.462 21.1591 122.405 20.5H120.223C120.291 21.4545 120.584 22.2926 121.101 23.0142C121.624 23.7358 122.339 24.2983 123.249 24.7017C124.163 25.1051 125.246 25.3068 126.496 25.3068C127.837 25.3068 128.976 25.0824 129.913 24.6335C130.857 24.1847 131.572 23.5795 132.061 22.8182C132.555 22.0568 132.803 21.2045 132.803 20.2614C132.803 19.4432 132.635 18.7528 132.3 18.1903C131.964 17.6278 131.538 17.1676 131.021 16.8097C130.51 16.446 129.973 16.1591 129.411 15.9489C128.854 15.7386 128.348 15.5739 127.893 15.4545L126.121 14.9773C125.797 14.892 125.442 14.7812 125.055 14.6449C124.669 14.5028 124.3 14.3239 123.947 14.108C123.595 13.8864 123.305 13.6108 123.078 13.2813C122.857 12.946 122.746 12.5455 122.746 12.0795C122.746 11.5227 122.905 11.0256 123.223 10.5881C123.547 10.1506 123.996 9.80682 124.57 9.55682C125.149 9.30682 125.825 9.18182 126.598 9.18182C127.655 9.18182 128.547 9.42045 129.274 9.89773Z" fill="white"/>
</svg>
