<svg width="18" height="18" viewBox="0 0 18 18" fill="none" xmlns="http://www.w3.org/2000/svg">
<path d="M11.5118 9.62788C11.8585 9.62788 12.1397 9.34675 12.1397 8.99998C12.1397 8.65321 11.8585 8.37207 11.5118 8.37207H6.4885C6.14172 8.37207 5.8606 8.65321 5.8606 8.99998C5.8606 9.34675 6.14172 9.62788 6.4885 9.62788H11.5118Z" fill="#8200FF"/>
<path fill-rule="evenodd" clip-rule="evenodd" d="M9 0C4.02944 0 0 4.02944 0 9C0 13.9706 4.02944 18 9 18C13.9706 18 18 13.9706 18 9C18 4.02944 13.9706 0 9 0ZM1.25581 9C1.25581 4.72301 4.72301 1.25581 9 1.25581C13.277 1.25581 16.7442 4.72301 16.7442 9C16.7442 13.277 13.277 16.7442 9 16.7442C4.72301 16.7442 1.25581 13.277 1.25581 9Z" fill="#8200FF"/>
</svg>
