<svg width="18" height="18" viewBox="0 0 18 18" fill="none" xmlns="http://www.w3.org/2000/svg">
<path fill-rule="evenodd" clip-rule="evenodd" d="M9 16.875C4.65076 16.875 1.125 13.3482 1.125 9C1.125 4.65188 4.65076 1.125 9 1.125C13.3493 1.125 16.875 4.65188 16.875 9C16.875 13.3482 13.3493 16.875 9 16.875ZM9 0C4.02919 0 0 4.0275 0 9C0 13.9725 4.02919 18 9 18C13.9708 18 18 13.9725 18 9C18 4.0275 13.9708 0 9 0ZM12.375 8.43749H9.56251V5.62501C9.56251 5.31563 9.31109 5.06251 9 5.06251C8.68898 5.06251 8.43749 5.31563 8.43749 5.62501V8.43749H5.62501C5.31394 8.43749 5.06251 8.69063 5.06251 9C5.06251 9.30938 5.31394 9.56251 5.62501 9.56251H8.43749V12.375C8.43749 12.6844 8.68898 12.9375 9 12.9375C9.31109 12.9375 9.56251 12.6844 9.56251 12.375V9.56251H12.375C12.6861 9.56251 12.9375 9.30938 12.9375 9C12.9375 8.69063 12.6861 8.43749 12.375 8.43749Z" fill="#8200FF"/>
</svg>
